# AST/ASF file generated using VICON BodyLanguage
# -----------------------------------------------
:version 1.10
:name VICON
:units
  mass 1.0
  length 0.45
  angle deg
:documentation
   .ast/.asf automatically generated from VICON data using
   VICON BodyBuilder and BodyLanguage model FoxedUp or BRILLIANT.MOD
:root
   order TX TY TZ RX RY RZ
   axis XYZ
   position 0 0 0  
   orientation 0 0 0 
:bonedata
  begin
     id 1 
     name lhipjoint
     direction 0.64773 -0.699417 0.302095 
     length 2.48597 
     axis 0 0 0  XYZ
  end
  begin
     id 2 
     name lfemur
     direction 0.34202 -0.939693 0  
     length 6.71947  
     axis 0 0 20  XYZ
    dof rx ry rz
    limits (-160.0 20.0)
           (-70.0 70.0)
           (-60.0 70.0)
  end
  begin
     id 3 
     name ltibia
     direction 0.34202 -0.939693 0   
     length 8.08777   
     axis 0 0 20   XYZ
    dof rx
    limits (-10.0 170.0)
  end
  begin
     id 4 
     name lfoot
     direction 0.0808503 -0.222134 0.971658   
     length 2.08264   
     axis -90 7.62852e-016 20   XYZ
    dof rx rz
    limits (-45.0 90.0)
           (-70.0 20.0)
  end
  begin
     id 5 
     name ltoes
     direction 1.53502e-011 -4.22007e-011 1   
     length 1.04662   
     axis -90 7.62852e-016 20   XYZ
    dof rx
    limits (-90.0 20.0)
  end
  begin
     id 6 
     name rhipjoint
     direction -0.610924 -0.726792 0.313919   
     length 2.39233  
     axis 0 0 0  XYZ 
  end
  begin
     id 7 
     name rfemur
     direction -0.34202 -0.939693 0   
     length 6.96955   
     axis 0 0 -20   XYZ
    dof rx ry rz
    limits (-160.0 20.0)
           (-70.0 70.0)
           (-70.0 60.0)
  end
  begin
     id 8 
     name rtibia
     direction -0.34202 -0.939693 0   
     length 8.19584   
     axis 0 0 -20   XYZ
    dof rx
    limits (-10.0 170.0)
 end
 begin
     id 9 
     name rfoot
     direction -0.077777 -0.213691 0.9738   
     length 2.07539  
     axis -90 -7.62852e-016 -20   XYZ
    dof rx rz
    limits (-45.0 90.0)
           (-20.0 70.0)
  end
  begin
     id 10 
     name rtoes
     direction -1.53558e-011 -4.22006e-011 1   
     length 1.04381   
     axis -90 -7.62852e-016 -20   XYZ
    dof rx
    limits (-90.0 20.0)
  end
  begin
     id 11 
     name lowerback
     direction -0.00971646 0.996074 0.0879841   
     length 1.67643   
     axis 0 0 0   XYZ
    dof rx ry rz
    limits (-20.0 45.0)
           (-30.0 30.0)
           (-30.0 30.0)
  end
  begin
     id 12 
     name upperback
     direction 0.0127391 0.991676 0.128127   
     length 1.63741   
     axis 0 0 0   XYZ
    dof rx ry rz
    limits (-20.0 45.0)
           (-30.0 30.0)
           (-30.0 30.0)
  end
  begin
     id 13 
     name thorax
     direction 0.0167583 0.996049 0.0872067   
     length 1.65931   
     axis 0 0 0   XYZ
    dof rx ry rz
    limits (-20.0 45.0)
           (-30.0 30.0)
           (-30.0 30.0)
  end
  begin
     id 14 
     name lowerneck
     direction -0.0317829 0.998312 0.0486079   
     length 1.79021   
     axis 0 0 0   XYZ
    dof rx ry rz
    limits (-20.0 45.0)
           (-30.0 30.0)
           (-30.0 30.0)
  end
  begin
     id 15 
     name upperneck
     direction 0.0896851 0.972452 -0.215159   
     length 1.78797   
     axis 0 0 0   XYZ
    dof rx ry rz
    limits (-20.0 45.0)
           (-30.0 30.0)
           (-30.0 30.0)
  end
  begin
     id 16
     name head
     direction 0.0310949 0.996503 -0.0775582  
     length 1.81549  
     axis 0 0 0   XYZ
    dof rx ry rz
    limits (-20.0 45.0)
           (-30.0 30.0)
           (-30.0 30.0)
  end
  begin
     id 17 
     name lclavicle
     direction 0.853638 0.502051 -0.138733  
     length 3.31627  
     axis 0 0 0   XYZ
    dof ry rz
    limits (-20.0 10.0)
           (0.0 20.0)
  end
  begin
     id 18 
     name lhumerus
     direction 1 -4.48962e-011 -1.41788e-018   
     length 5.54893   
     axis 180 -30 -90   XYZ
    dof rx ry rz
    limits (-60.0 90.0)
           (-90.0 90.0)
           (-90.0 90.0)
  end
  begin
     id 19
     name lradius
     direction 1 -4.48962e-011 -4.95754e-027   
     length 3.02898   
     axis 180 -30 -90   XYZ
    dof rx
    limits (-10.0 170.0)
  end
  begin
     id 20
     name lwrist
     direction 1 -4.48952e-011 -1.03764e-026   
     length 1.51449   
     axis 9.09556e-015 90 90   XYZ
    dof ry
    limits (-180.0 0.0)
 end
  begin
     id 21 
     name lhand
     direction 1 -4.4902e-011 -2.07528e-026   
     length 0.640951   
     axis 1.3242e-014 90 90   XYZ
    dof rx rz
    limits (-90.0 90.0)
           (-45.0 45.0)
  end
  begin
     id 22 
     name lfingers
     direction 1 -4.49014e-011 -4.15056e-026   
     length 0.516751   
     axis 2.64841e-014 90 90   XYZ
    dof rx
    limits (0.0 90.0)
  end
  begin
     id 23
     name lthumb
     direction 0.707107 -6.35008e-011 0.707107   
     length 0.741954   
     axis -90 45 2.85299e-015   XYZ
    dof rx rz
    limits (-45.0 45.0)
           (-45.0 45.0)
  end
  begin
     id 24 
     name rclavicle
     direction -0.888531 0.455324 -0.0565039   
     length 3.20126  
     axis 0 0 0   XYZ 
    dof ry rz
    limits (-10.0 20.0)
           (-20.0 0.0)
  end
  begin
     id 25 
     name rhumerus
     direction -1 -4.48946e-011 -8.98298e-028  
     length 5.3519   
     axis 180 30 90   XYZ
    dof rx ry rz
    limits (-90.0 60.0)
           (-90.0 90.0)
           (-90.0 90.0)
  end
  begin
     id 26 
     name rradius
     direction -1 -4.4899e-011 -3.18779e-027   
     length 3.02531   
     axis 180 30 90   XYZ
    dof rx
    limits (-10.0 170.0)
  end
  begin
     id 27 
     name rwrist
     direction -1 -4.4897e-011 -1.03764e-026   
     length 1.51266   
     axis 9.09556e-015 -90 -90   XYZ
    dof ry
    limits (-180.0 0.0)
  end
  begin
     id 28
     name rhand
     direction -1 -4.48941e-011 -2.07528e-026   
     length 0.78389   
     axis 1.3242e-014 -90 -90   XYZ
    dof rx rz
    limits (-90.0 90.0)
           (-45.0 45.0)
  end
  begin
     id 29
     name rfingers
     direction -1 -4.49012e-011 -4.15056e-026   
     length 0.631992   
     axis 2.64841e-014 -90 -90   XYZ
    dof rx
    limits (0.0 90.0)
  end
  begin
     id 30
     name rthumb
     direction -0.707107 -6.3496e-011 0.707107   
     length 0.907418   
     axis -90 -45 -2.85299e-015   XYZ
    dof rx rz
    limits (-45.0 45.0)
           (-45.0 45.0)
  end
:hierarchy
  begin
    root lhipjoint rhipjoint lowerback
    lhipjoint lfemur
    lfemur ltibia
    ltibia lfoot
    lfoot ltoes
    rhipjoint rfemur
    rfemur rtibia
    rtibia rfoot
    rfoot rtoes
    lowerback upperback
    upperback thorax
    thorax lowerneck lclavicle rclavicle
    lowerneck upperneck
    upperneck head
    lclavicle lhumerus
    lhumerus lradius
    lradius lwrist
    lwrist lhand lthumb
    lhand lfingers
    rclavicle rhumerus
    rhumerus rradius
    rradius rwrist
    rwrist rhand rthumb
    rhand rfingers
  end

#!OML:ASF E:\Style3\Style3.ASF
:FULLY-SPECIFIED
:DEGREES
1404
root -0.486662 17.5944 -1.16839 -131.83 55.2213 -176.396
lowerback 23.7818 3.05925 -5.14824
upperback 2.88908 2.80056 -1.49026
thorax -10.2328 1.60587 0.369071
lowerneck -7.19544 3.25747 2.50343
upperneck -13.7917 4.93118 -2.18096
head -3.08646 2.80307 -1.17515
rclavicle 4.64659e-015 -5.97099e-014
rhumerus -3.94406 32.8666 -55.0219
rradius 147.638
rwrist -55.1739
rhand 37.938 20.2626
rfingers 7.12502
rthumb 60.665 7.19987
lclavicle 4.64659e-015 -5.97099e-014
lhumerus -10.5151 -41.1223 59.6724
lradius 146.525
lwrist 54.8185
lhand 32.9624 19.9661
lfingers 7.12502
lthumb 56.3488 37.082
rfemur -43.2827 -2.76674 18.0839
rtibia 15.375
rfoot -16.133 -36.5441
rtoes 2.94527
lfemur -64.8849 -19.7355 5.05581
ltibia 23.8745
lfoot -6.08975 2.41884
ltoes -22.7252
1405
root -0.476397 17.5967 -1.17883 -131.768 55.1735 -176.275
lowerback 23.7221 3.01407 -5.11829
upperback 2.8771 2.75526 -1.45624
thorax -10.2127 1.58377 0.407066
lowerneck -7.13976 3.27429 2.44462
upperneck -13.5913 4.93867 -2.15408
head -3.02816 2.79915 -1.15229
rclavicle -1.18525e-014 -6.56362e-014
rhumerus -4.70787 31.0887 -58.4151
rradius 147.974
rwrist -56.1531
rhand 38.7693 20.29
rfingers 7.12502
rthumb 61.3674 8.03002
lclavicle -1.18525e-014 -6.56362e-014
lhumerus -11.2203 -39.8498 61.9185
lradius 146.945
lwrist 55.65
lhand 32.8247 20.2323
lfingers 7.12502
lthumb 56.227 37.4447
rfemur -43.1202 -2.81431 18.2093
rtibia 15.2492
rfoot -16.03 -36.4645
rtoes 2.79172
lfemur -64.8108 -19.7462 5.08746
ltibia 23.9097
lfoot -6.10867 2.41123
ltoes -22.8795
1406
root -0.467235 17.5972 -1.18552 -131.714 55.1112 -176.194
lowerback 23.6796 2.97897 -5.09849
upperback 2.83114 2.71661 -1.41046
thorax -10.2416 1.56532 0.459684
lowerneck -7.1565 3.29713 2.32162
upperneck -13.3287 4.95841 -2.0911
head -2.93789 2.80296 -1.10345
rclavicle -8.34833e-014 -5.15287e-014
rhumerus -5.49344 29.2158 -61.9557
rradius 148.198
rwrist -57.195
rhand 39.5419 20.1745
rfingers 7.12502
rthumb 62.0143 8.69845
lclavicle -8.34833e-014 -5.15287e-014
lhumerus -11.8901 -38.8688 64.7569
lradius 147.041
lwrist 56.063
lhand 32.3441 20.0488
lfingers 7.12502
lthumb 55.8011 37.5917
rfemur -42.9827 -2.73828 18.2299
rtibia 15.1082
rfoot -15.9691 -36.5584
rtoes 2.87173
lfemur -64.7907 -19.7159 5.07618
ltibia 23.9802
lfoot -6.10642 2.35697
ltoes -22.4778
1407
root -0.455944 17.5973 -1.19247 -131.667 55.0017 -176.072
lowerback 23.6826 2.96918 -4.99717
upperback 2.8027 2.73096 -1.35986
thorax -10.2743 1.56854 0.452716
lowerneck -7.20935 3.31241 2.25321
upperneck -13.1498 4.96601 -2.11762
head -2.86752 2.80485 -1.09418
rclavicle -3.46196e-014 6.37074e-014
rhumerus -6.24215 27.5322 -65.4371
rradius 148.187
rwrist -57.6667
rhand 39.8311 20.3826
rfingers 7.12502
rthumb 62.255 9.2099
lclavicle -3.46196e-014 6.37074e-014
lhumerus -12.3766 -38.0982 67.9489
lradius 146.82
lwrist 55.9808
lhand 32.1476 19.6305
lfingers 7.12502
lthumb 55.6267 37.306
rfemur -42.7752 -2.68454 18.3193
rtibia 14.9258
rfoot -16.1366 -36.6049
rtoes 3.40201
lfemur -64.7141 -19.6447 5.01896
ltibia 24.1005
lfoot -6.23115 2.23038
ltoes -22.4416
1408
root -0.443603 17.5989 -1.19969 -131.662 54.9154 -175.897
lowerback 23.7629 2.9988 -4.91646
upperback 2.82849 2.79217 -1.31678
thorax -10.2897 1.59511 0.432074
lowerneck -7.30133 3.34687 2.33974
upperneck -13.105 4.99374 -2.27261
head -2.82974 2.81952 -1.15494
rclavicle -4.54223e-014 2.97804e-014
rhumerus -6.91112 26.125 -68.8348
rradius 148.001
rwrist -57.9077
rhand 39.9021 20.6579
rfingers 7.12502
rthumb 62.314 9.56053
lclavicle -4.54223e-014 2.97804e-014
lhumerus -12.7622 -37.0592 70.8859
lradius 146.598
lwrist 56.0942
lhand 32.2183 19.0414
lfingers 7.12502
lthumb 55.6894 36.6693
rfemur -42.5144 -2.55043 18.4041
rtibia 14.8317
rfoot -16.2746 -36.7181
rtoes 3.72137
lfemur -64.5087 -19.5579 4.91196
ltibia 24.2033
lfoot -6.39042 2.02758
ltoes -22.3649
1409
root -0.431593 17.6018 -1.20689 -131.641 54.8532 -175.663
lowerback 23.8868 3.05639 -4.81999
upperback 2.89883 2.89573 -1.27726
thorax -10.2789 1.64114 0.384097
lowerneck -7.38707 3.34691 2.44676
upperneck -13.2375 4.98426 -2.46546
head -2.85356 2.82213 -1.2366
rclavicle 1.85615e-014 8.57135e-014
rhumerus -7.54379 24.8561 -72.0764
rradius 147.771
rwrist -58.0998
rhand 40.0602 20.8624
rfingers 7.12502
rthumb 62.445 9.93387
lclavicle 1.85615e-014 8.57135e-014
lhumerus -13.0354 -35.9547 73.5239
lradius 146.405
lwrist 56.4628
lhand 32.1679 18.4619
lfingers 7.12502
lthumb 55.6447 36.1237
rfemur -42.2461 -2.50304 18.5864
rtibia 14.753
rfoot -15.9747 -36.8223
rtoes 3.38413
lfemur -64.2824 -19.5009 4.86025
ltibia 24.3195
lfoot -6.50104 1.88691
ltoes -22.1815
1410
root -0.43058 17.5974 -1.21934 -132.052 54.4811 -175.998
lowerback 24.0844 2.8961 -4.34567
upperback 2.94998 2.8066 -1.28476
thorax -10.2998 1.58271 0.128086
lowerneck -7.38007 3.3049 2.49838
upperneck -13.378 4.92346 -2.60214
head -2.90031 2.79843 -1.29385
rclavicle 4.84538e-014 5.76227e-014
rhumerus -8.34644 23.7461 -75.1194
rradius 147.528
rwrist -58.2139
rhand 40.6051 20.9842
rfingers 7.12502
rthumb 62.8949 10.651
lclavicle 4.84538e-014 5.76227e-014
lhumerus -13.1044 -35.082 75.9403
lradius 146.3
lwrist 57.0653
lhand 31.9473 18.2717
lfingers 7.12502
lthumb 55.4486 36.0809
rfemur -42.0079 -2.82453 18.6706
rtibia 14.7227
rfoot -16.5835 -36.8661
rtoes 4.15985
lfemur -64.2999 -19.6579 4.67859
ltibia 24.4194
lfoot -6.51822 1.46063
ltoes -22.1915
1411
root -0.425365 17.5937 -1.22433 -132.117 54.3791 -175.989
lowerback 24.1486 2.89095 -4.17522
upperback 2.98064 2.84349 -1.29239
thorax -10.2925 1.59352 0.00867905
lowerneck -7.37344 3.24842 2.55746
upperneck -13.498 4.8442 -2.69904
head -2.94151 2.7631 -1.33908
rclavicle 8.61732e-014 9.79511e-014
rhumerus -9.18192 22.7889 -77.9039
rradius 147.317
rwrist -58.2656
rhand 41.6693 20.8686
rfingers 7.12502
rthumb 63.7637 11.759
lclavicle 8.61732e-014 9.79511e-014
lhumerus -12.9992 -34.3459 78.1584
lradius 146.154
lwrist 57.6266
lhand 31.9688 17.9115
lfingers 7.12502
lthumb 55.4678 35.7063
rfemur -41.9578 -2.96217 18.8108
rtibia 14.8235
rfoot -17.288 -36.6826
rtoes 5.08436
lfemur -64.2425 -19.6348 4.59111
ltibia 24.4947
lfoot -6.55736 1.28548
ltoes -22.3665
1412
root -0.420781 17.5887 -1.22469 -132.199 54.2656 -176.078
lowerback 24.1517 2.87262 -4.07233
upperback 3.02499 2.84951 -1.31128
thorax -10.2384 1.59262 -0.0713843
lowerneck -7.47935 3.19029 2.62965
upperneck -13.6163 4.76913 -2.75882
head -2.9633 2.73079 -1.37159
rclavicle -2.94201e-014 6.0679e-014
rhumerus -9.62937 21.8859 -80.2347
rradius 147.13
rwrist -58.2851
rhand 42.8155 20.5804
rfingers 7.12502
rthumb 64.684 12.886
lclavicle -2.94201e-014 6.0679e-014
lhumerus -12.753 -33.9116 80.1821
lradius 145.921
lwrist 57.6494
lhand 32.6083 18.2397
lfingers 7.12502
lthumb 56.0354 35.6019
rfemur -42.0938 -3.03789 18.8531
rtibia 15.1269
rfoot -17.4399 -36.7084
rtoes 5.4313
lfemur -64.2474 -19.5774 4.44905
ltibia 24.5189
lfoot -6.55608 1.03373
ltoes -22.4626
